name C:\Users\u0150099\Documents\master_thesis\3dpredictsim\Results\debug\Fal_s1_mtp_sc_cspx10_oy_MTPm_k1_d01_PF_Gefen2002_ls146_ig21.mot
datacolumns 126
datarows 4
range 1.52907840 1.55965997
endheader
time	pelvis_tilt	pelvis_list	pelvis_rotation	pelvis_tx	pelvis_ty	pelvis_tz	hip_flexion_l	hip_adduction_l	hip_rotation_l	hip_flexion_r	hip_adduction_r	hip_rotation_r	knee_angle_l	knee_angle_r	ankle_angle_l	ankle_angle_r	subtalar_angle_l	subtalar_angle_r	mtp_angle_l	mtp_angle_r	lumbar_extension	lumbar_bending	lumbar_rotation	arm_flex_l	arm_add_l	arm_rot_l	arm_flex_r	arm_add_r	arm_rot_r	elbow_flex_l	elbow_flex_r	pro_sup_l	pro_sup_r	glut_med1_l/activation	glut_med2_l/activation	glut_med3_l/activation	glut_min1_l/activation	glut_min2_l/activation	glut_min3_l/activation	semimem_l/activation	semiten_l/activation	bifemlh_l/activation	bifemsh_l/activation	sar_l/activation	add_long_l/activation	add_brev_l/activation	add_mag1_l/activation	add_mag2_l/activation	add_mag3_l/activation	tfl_l/activation	pect_l/activation	grac_l/activation	glut_max1_l/activation	glut_max2_l/activation	glut_max3_l/activation	iliacus_l/activation	psoas_l/activation	quad_fem_l/activation	gem_l/activation	peri_l/activation	rect_fem_l/activation	vas_med_l/activation	vas_int_l/activation	vas_lat_l/activation	med_gas_l/activation	lat_gas_l/activation	soleus_l/activation	tib_post_l/activation	flex_dig_l/activation	flex_hal_l/activation	tib_ant_l/activation	per_brev_l/activation	per_long_l/activation	per_tert_l/activation	ext_dig_l/activation	ext_hal_l/activation	ercspn_l/activation	intobl_l/activation	extobl_l/activation	glut_med1_r/activation	glut_med2_r/activation	glut_med3_r/activation	glut_min1_r/activation	glut_min2_r/activation	glut_min3_r/activation	semimem_r/activation	semiten_r/activation	bifemlh_r/activation	bifemsh_r/activation	sar_r/activation	add_long_r/activation	add_brev_r/activation	add_mag1_r/activation	add_mag2_r/activation	add_mag3_r/activation	tfl_r/activation	pect_r/activation	grac_r/activation	glut_max1_r/activation	glut_max2_r/activation	glut_max3_r/activation	iliacus_r/activation	psoas_r/activation	quad_fem_r/activation	gem_r/activation	peri_r/activation	rect_fem_r/activation	vas_med_r/activation	vas_int_r/activation	vas_lat_r/activation	med_gas_r/activation	lat_gas_r/activation	soleus_r/activation	tib_post_r/activation	flex_dig_r/activation	flex_hal_r/activation	tib_ant_r/activation	per_brev_r/activation	per_long_r/activation	per_tert_r/activation	ext_dig_r/activation	ext_hal_r/activation	ercspn_r/activation	intobl_r/activation	extobl_r/activation	
          1.52907840	         -2.92696419	          0.83313504	         -2.03999230	          2.03367427	          0.90967456	          0.00550654	         27.50976872	          2.65750592	         -3.99771302	        -16.34880953	          2.36337102	          6.24919720	         -6.78178938	         -6.48411774	          8.66999426	          8.72261036	         -1.59857749	          5.61828119	         15.66450236	         20.71865417	         -3.28088587	         -0.36962604	          2.03396183	         -7.14745075	        -13.46909333	          2.86744031	          4.40005395	        -13.94617636	         19.35433663	         27.61765757	         31.09155808	         86.51662706	         86.51662706	          0.05000031	          0.05000030	          0.05849411	          0.05000023	          0.05000029	          0.05000072	          0.31452549	          0.05640032	          0.08809535	          0.05000440	          0.05040436	          0.12779583	          0.15465448	          0.12468676	          0.14050927	          0.13657975	          0.05000262	          0.06501705	          0.07046983	          0.05844685	          0.05849494	          0.10214214	          0.05000058	          0.05000068	          0.21492191	          0.05000098	          0.05000055	          0.05000083	          0.05466110	          0.05860416	          0.05010657	          0.05970003	          0.05000049	          0.05000006	          0.05717172	          0.05000053	          0.05000131	          0.42295995	          0.23892603	          0.16229748	          0.16528490	          0.44804150	          0.28276293	          0.06843321	          0.07576889	          0.10806778	          0.38927931	          0.10963242	          0.08005950	          0.49457736	          0.28802983	          0.11252151	          0.05000124	          0.05000027	          0.05000019	          0.08392970	          0.10475973	          0.05000046	          0.05000021	          0.05000038	          0.05000078	          0.05000061	          0.59730234	          0.05000180	          0.05000062	          0.05000883	          0.05000097	          0.05000080	          0.27302848	          0.84096093	          0.05000011	          0.05000076	          0.05849503	          0.18213695	          0.05000057	          0.05000055	          0.05000055	          0.27954810	          0.38311575	          0.36944317	          0.45214426	          0.18679676	          0.40964241	          0.06336723	          0.05112806	          0.05849462	          0.05007219	          0.06468183	          0.22968282	          0.05000003	          0.05000001	          0.05000002	
          1.53927225	         -2.92110946	          0.91084656	         -2.22482974	          2.04972175	          0.90927799	          0.00518653	         27.10240975	          2.99403461	         -3.87378915	        -16.18273150	          2.14507259	          6.21692875	         -6.94092092	         -8.55937878	          8.22462997	          8.01560081	         -1.66362210	          6.47982079	         16.02458056	         21.74362418	         -3.10592900	         -0.59072182	          2.14291981	         -7.78942556	        -13.44991862	          2.52124775	          4.02790642	        -13.89910529	         19.18433675	         27.16047559	         32.19348186	         86.51662706	         86.51662706	          0.05849483	          0.05849480	          0.05000022	          0.05849495	          0.05849491	          0.05836750	          0.28318881	          0.05000071	          0.08756040	          0.05000030	          0.05000042	          0.12272265	          0.17616234	          0.10657987	          0.15700120	          0.15509263	          0.05000029	          0.07214513	          0.06023835	          0.05000041	          0.05000050	          0.16975191	          0.05632399	          0.05000088	          0.38926451	          0.17492828	          0.11148900	          0.05000066	          0.06838961	          0.06839024	          0.06573376	          0.06657173	          0.06488580	          0.05067696	          0.05000021	          0.05000064	          0.05000088	          0.48752707	          0.31614084	          0.17815909	          0.23776007	          0.47061454	          0.24169911	          0.05849505	          0.06476541	          0.09237372	          0.33274660	          0.09371115	          0.06843293	          0.42275281	          0.24620095	          0.09618069	          0.05000152	          0.05000029	          0.05000025	          0.07174109	          0.08954618	          0.09273144	          0.10210928	          0.05000178	          0.05002618	          0.05000201	          0.55683249	          0.05849388	          0.05000074	          0.05000097	          0.05000101	          0.05000117	          0.23337814	          0.80109190	          0.05000014	          0.05000035	          0.05000028	          0.15568657	          0.10799767	          0.10800812	          0.09475220	          0.23895092	          0.32747804	          0.31579104	          0.43775516	          0.16811515	          0.36001351	          0.05416478	          0.05000013	          0.05000006	          0.05000010	          0.05528847	          0.19880801	          0.05000023	          0.05603298	          0.05000007	
          1.54946611	         -2.91228460	          1.00537239	         -2.39693469	          2.06597649	          0.90896452	          0.00484693	         26.70112881	          3.28240376	         -3.72542385	        -15.90992388	          1.90619584	          6.14890133	         -7.65527122	        -10.78998863	          7.40255932	          7.06205598	         -1.71539728	          7.38037729	         16.40134877	         22.92656903	         -2.92031851	         -0.83159692	          2.24226241	         -8.42852899	        -13.46375224	          2.39133814	          3.58399791	        -13.84238227	         18.93370952	         26.68339975	         33.32727627	         86.51662706	         86.51662706	          0.05000003	          0.05000011	          0.15323839	          0.05000011	          0.05000012	          0.05000014	          0.24206295	          0.05429293	          0.07484468	          0.05102083	          0.06031773	          0.10490065	          0.32581128	          0.31430202	          0.20564259	          0.18301757	          0.05000048	          0.06858588	          0.19225649	          0.09434585	          0.12401933	          0.18986224	          0.06735369	          0.06843289	          0.52593628	          0.14952457	          0.09529822	          0.05000092	          0.05845812	          0.05845864	          0.05618795	          0.06843284	          0.06843308	          0.06152225	          0.05849545	          0.05000013	          0.05000038	          0.41702444	          0.27023010	          0.16296605	          0.24889249	          0.50907782	          0.22112751	          0.05000015	          0.05535990	          0.07895882	          0.28442374	          0.08010203	          0.05849492	          0.36135891	          0.21044663	          0.08221295	          0.05583090	          0.05084062	          0.05849490	          0.06132256	          0.07654200	          0.15766276	          0.21839083	          0.05854928	          0.05850469	          0.13038178	          0.54815468	          0.05000071	          0.05001277	          0.05849512	          0.05849536	          0.05849557	          0.19948598	          0.75281795	          0.05849492	          0.05849505	          0.05849469	          0.15254800	          0.14967964	          0.14982086	          0.11703227	          0.20424943	          0.27992027	          0.26993050	          0.37528455	          0.14370113	          0.30773108	          0.05000002	          0.05000003	          0.05000003	          0.05000005	          0.05000003	          0.16993631	          0.07669341	          0.06843305	          0.05849506	
          1.55965997	         -2.90124797	          1.13446615	         -2.55366362	          2.08235048	          0.90873052	          0.00450577	         26.27216638	          3.48986677	         -3.52834202	        -15.52411997	          1.63656622	          6.04103808	         -8.60491007	        -13.15843013	          6.30367747	          5.81565451	         -1.72953912	          8.25587633	         16.79018403	         24.30458375	         -2.72850184	         -1.10879633	          2.33083725	         -9.04357536	        -13.51209176	          2.45401524	          3.08606392	        -13.77709490	         18.64725653	         26.17193108	         34.48102310	         86.51662706	         86.51662706	          0.35423483	          0.36538899	          0.42249966	          0.43438525	          0.37949697	          0.35720816	          0.20690956	          0.10839969	          0.09743624	          0.07618868	          0.05849517	          0.08966658	          0.27849563	          0.26865784	          0.17577848	          0.22492025	          0.05000096	          0.05862606	          0.16433663	          0.24771403	          0.21375347	          0.22641945	          0.05849488	          0.05849489	          0.44955759	          0.12781010	          0.15419420	          0.05000006	          0.05000009	          0.05000009	          0.05000008	          0.05849474	          0.05849495	          0.05258773	          0.05000051	          0.17808438	          0.05849482	          0.65081722	          0.23098654	          0.15198389	          0.55280311	          0.57842513	          0.18901443	          0.08052320	          0.07793830	          0.06749209	          0.25918418	          0.06846929	          0.05000006	          0.35411553	          0.17988474	          0.07027367	          0.05000179	          0.05000021	          0.05000018	          0.05241711	          0.06542645	          0.19863811	          0.23822428	          0.05004681	          0.05000902	          0.11144734	          0.62329695	          0.07458887	          0.05000058	          0.05000123	          0.05000089	          0.05000093	          0.17051591	          0.71467853	          0.05000010	          0.05000028	          0.05000005	          0.18509963	          0.12794259	          0.12806329	          0.10003640	          0.17458745	          0.23926904	          0.23073002	          0.32078415	          0.12283230	          0.26304113	          0.06538623	          0.05000016	          0.05000020	          0.05000010	          0.14956527	          0.14525745	          0.09905394	          0.05849491	          0.05000018	
